M48
;Layer_Color=9474304
;FILE_FORMAT=4:2
METRIC,LZ
;TYPE=PLATED
T01F00S00C0.30
T02F00S00C1.02
%
T01
X-00094Y-001209
X-000701Y-000328
X-000521Y-00047
X-000384Y-000374
X-000274Y-000681
X-0Y-0
X000564Y-000109
X000546Y-000366
X000922Y00021
X001438Y-00003
X000582Y-001328
X00031Y-001267
X000351Y000724
X000089Y00114
X000546Y001422
X000881Y001072
X001029Y000485
X-000386Y000396
X-000589Y001308
T02
X-00093Y-000217
Y000037
Y000291
M30
