G04*
G04 #@! TF.GenerationSoftware,Altium Limited,Altium Designer,25.8.1 (18)*
G04*
G04 Layer_Physical_Order=1*
G04 Layer_Color=255*
%FSLAX44Y44*%
%MOMM*%
G71*
G04*
G04 #@! TF.SameCoordinates,1A4DDBEB-C1CA-4CE2-9A89-746601BF3F7A*
G04*
G04*
G04 #@! TF.FilePolarity,Positive*
G04*
G01*
G75*
%ADD13C,0.2540*%
%ADD14R,0.8000X0.9500*%
%ADD15R,1.2000X1.2000*%
%ADD16R,0.9500X0.8000*%
%ADD17R,0.6400X0.8900*%
%ADD18R,1.2000X0.8000*%
%ADD19R,0.8000X0.8000*%
G04:AMPARAMS|DCode=20|XSize=1mm|YSize=1mm|CornerRadius=0.5mm|HoleSize=0mm|Usage=FLASHONLY|Rotation=300.000|XOffset=0mm|YOffset=0mm|HoleType=Round|Shape=RoundedRectangle|*
%AMROUNDEDRECTD20*
21,1,1.0000,0.0000,0,0,300.0*
21,1,0.0000,1.0000,0,0,300.0*
1,1,1.0000,0.0000,0.0000*
1,1,1.0000,0.0000,0.0000*
1,1,1.0000,0.0000,0.0000*
1,1,1.0000,0.0000,0.0000*
%
%ADD20ROUNDEDRECTD20*%
G04:AMPARAMS|DCode=21|XSize=1mm|YSize=1mm|CornerRadius=0.5mm|HoleSize=0mm|Usage=FLASHONLY|Rotation=0.000|XOffset=0mm|YOffset=0mm|HoleType=Round|Shape=RoundedRectangle|*
%AMROUNDEDRECTD21*
21,1,1.0000,0.0000,0,0,0.0*
21,1,0.0000,1.0000,0,0,0.0*
1,1,1.0000,0.0000,0.0000*
1,1,1.0000,0.0000,0.0000*
1,1,1.0000,0.0000,0.0000*
1,1,1.0000,0.0000,0.0000*
%
%ADD21ROUNDEDRECTD21*%
G04:AMPARAMS|DCode=22|XSize=1mm|YSize=1mm|CornerRadius=0.5mm|HoleSize=0mm|Usage=FLASHONLY|Rotation=240.000|XOffset=0mm|YOffset=0mm|HoleType=Round|Shape=RoundedRectangle|*
%AMROUNDEDRECTD22*
21,1,1.0000,0.0000,0,0,240.0*
21,1,0.0000,1.0000,0,0,240.0*
1,1,1.0000,0.0000,0.0000*
1,1,1.0000,0.0000,0.0000*
1,1,1.0000,0.0000,0.0000*
1,1,1.0000,0.0000,0.0000*
%
%ADD22ROUNDEDRECTD22*%
%ADD29C,1.5700*%
%ADD30R,1.5700X1.5700*%
%ADD31C,0.2032*%
%ADD32C,1.2700*%
G36*
X86890Y150530D02*
X96320Y134242D01*
X94901Y133371D01*
X91798Y132162D01*
X88529Y131525D01*
X85200Y131480D01*
X81915Y132029D01*
X78781Y133154D01*
X75897Y134819D01*
X73355Y136971D01*
X71238Y139541D01*
X69612Y142448D01*
X68529Y145597D01*
X68025Y148888D01*
X68069Y150553D01*
Y150553D01*
X86890Y150530D01*
D02*
G37*
G36*
X-68025Y148888D02*
X-68529Y145597D01*
X-69612Y142448D01*
X-71238Y139541D01*
X-73355Y136971D01*
X-75897Y134819D01*
X-78781Y133154D01*
X-81915Y132029D01*
X-85200Y131480D01*
X-88529Y131525D01*
X-91798Y132162D01*
X-94901Y133371D01*
X-96320Y134242D01*
Y134242D01*
X-86890Y150530D01*
X-68069Y150553D01*
X-68025Y148888D01*
D02*
G37*
G36*
X27480Y150538D02*
X27520Y148348D01*
X26904Y144010D01*
X25609Y139824D01*
X23669Y135896D01*
X21131Y132324D01*
X18060Y129199D01*
X14534Y126599D01*
X10640Y124590D01*
X6478Y123222D01*
X2152Y122530D01*
X-2230Y122532D01*
X-6556Y123226D01*
X-10717Y124597D01*
X-14609Y126608D01*
X-18134Y129210D01*
X-21203Y132337D01*
X-23738Y135911D01*
X-25676Y139840D01*
X-26968Y144027D01*
X-27581Y148365D01*
X-27541Y150555D01*
X-27541Y150555D01*
X27480Y150538D01*
D02*
G37*
G36*
X-63442Y138469D02*
X-64387Y137924D01*
X-66042Y136269D01*
X-67212Y134241D01*
X-67791Y132080D01*
X-50065D01*
X-50644Y134241D01*
X-51543Y135798D01*
X-50323Y136734D01*
X-16040Y102451D01*
X-15031Y101777D01*
X-13842Y101540D01*
X17018D01*
X18207Y101777D01*
X19216Y102451D01*
X51260Y134495D01*
X51375Y134429D01*
X53506Y133858D01*
X55714D01*
X57845Y134429D01*
X59757Y135533D01*
X61317Y137093D01*
X62345Y138873D01*
X69237D01*
X69430Y138530D01*
X69550Y138388D01*
X69639Y138224D01*
X71756Y135654D01*
X71901Y135536D01*
X72016Y135390D01*
X74558Y133238D01*
X74721Y133148D01*
X74861Y133025D01*
X77745Y131360D01*
X77921Y131300D01*
X78081Y131204D01*
X81215Y130079D01*
X81399Y130052D01*
X81573Y129986D01*
X84858Y129437D01*
X85044Y129443D01*
X85227Y129409D01*
X86649Y129428D01*
X97476Y118601D01*
Y111842D01*
X95952Y111433D01*
X95252Y112647D01*
X93597Y114302D01*
X91569Y115472D01*
X89408Y116051D01*
Y107188D01*
Y98325D01*
X91569Y98904D01*
X93597Y100074D01*
X95252Y101729D01*
X95952Y102943D01*
X97476Y102534D01*
Y86685D01*
X90005Y79214D01*
X89331Y78205D01*
X89094Y77016D01*
Y39116D01*
X89331Y37927D01*
X90005Y36918D01*
X95806Y31117D01*
X95759Y30829D01*
X94029Y29714D01*
X93472Y29864D01*
Y22270D01*
X101065D01*
X100916Y22827D01*
X102030Y24557D01*
X102318Y24605D01*
X119977Y6946D01*
X120985Y6273D01*
X122174Y6036D01*
X138670D01*
X139079Y4512D01*
X138305Y4066D01*
X136650Y2411D01*
X135480Y383D01*
X134901Y-1778D01*
X143764D01*
Y-3048D01*
X145034D01*
Y-11911D01*
X147195Y-11332D01*
X149223Y-10162D01*
X150878Y-8507D01*
X152021Y-6526D01*
X152214Y-6479D01*
X153628Y-6472D01*
X154494Y-8787D01*
X154592Y-8945D01*
X154655Y-9121D01*
X156103Y-11554D01*
X152477Y-15180D01*
X102616D01*
X101427Y-15417D01*
X100419Y-16091D01*
X94217Y-22292D01*
X46990D01*
X45801Y-22529D01*
X44792Y-23203D01*
X39204Y-28791D01*
X38531Y-29799D01*
X38294Y-30988D01*
Y-41910D01*
X38531Y-43099D01*
X39204Y-44107D01*
X44538Y-49441D01*
X45547Y-50115D01*
X46736Y-50352D01*
X56117D01*
X57852Y-52087D01*
Y-108452D01*
X56456Y-109064D01*
X3240Y-59946D01*
X2774Y-59662D01*
X2321Y-59359D01*
X2259Y-59347D01*
X2206Y-59314D01*
X1667Y-59229D01*
X1132Y-59122D01*
X1128D01*
Y-56198D01*
X-8711D01*
X-11983Y-52926D01*
X-13075Y-52196D01*
X-14364Y-51940D01*
X-15488D01*
Y-45390D01*
X-25952D01*
Y-57721D01*
X-26110Y-58465D01*
X-26162Y-58501D01*
Y-66802D01*
X-18569D01*
X-19148Y-64641D01*
X-20318Y-62613D01*
X-21973Y-60958D01*
X-22607Y-60592D01*
X-23094Y-58557D01*
X-22963Y-58354D01*
X-19918D01*
X-19824Y-58417D01*
X-18536Y-58673D01*
X-16120D01*
X-14936Y-59856D01*
Y-67077D01*
X-15444Y-68390D01*
X-15444Y-69576D01*
Y-73660D01*
X-6904D01*
X1636D01*
X1636Y-68998D01*
X3120Y-68294D01*
X61139Y-121844D01*
X62771Y-123475D01*
X61835Y-124695D01*
X61597Y-124558D01*
X59436Y-123979D01*
Y-132842D01*
X56896D01*
Y-123979D01*
X54735Y-124558D01*
X52707Y-125728D01*
X51913Y-126523D01*
X50588Y-127038D01*
X49878Y-126509D01*
X37503Y-114135D01*
X36495Y-113461D01*
X35306Y-113224D01*
X-13208D01*
X-14397Y-113461D01*
X-15405Y-114135D01*
X-41265Y-139993D01*
X-68611D01*
X-69430Y-138530D01*
X-69550Y-138388D01*
X-69639Y-138224D01*
X-71756Y-135654D01*
X-71901Y-135536D01*
X-72016Y-135390D01*
X-74558Y-133238D01*
X-74721Y-133148D01*
X-74861Y-133025D01*
X-77745Y-131360D01*
X-77921Y-131300D01*
X-78081Y-131204D01*
X-81215Y-130079D01*
X-81399Y-130052D01*
X-81573Y-129986D01*
X-84858Y-129437D01*
X-85044Y-129443D01*
X-85227Y-129409D01*
X-87946Y-129445D01*
X-88397Y-128326D01*
X-88432Y-127928D01*
X-86866Y-126363D01*
X-85696Y-124335D01*
X-85117Y-122174D01*
X-93980D01*
Y-120904D01*
X-95250D01*
Y-112041D01*
X-97411Y-112620D01*
X-99439Y-113790D01*
X-101094Y-115445D01*
X-102264Y-117473D01*
X-102495Y-118335D01*
X-104131Y-118550D01*
X-114086Y-101307D01*
X-113772Y-100178D01*
X-113392Y-99651D01*
X-109942Y-96951D01*
X-109834Y-96825D01*
X-109700Y-96728D01*
X-106720Y-93516D01*
X-106633Y-93375D01*
X-106516Y-93258D01*
X-104082Y-89615D01*
X-104019Y-89462D01*
X-103922Y-89328D01*
X-102095Y-85345D01*
X-102057Y-85184D01*
X-101982Y-85037D01*
X-100808Y-80815D01*
X-100796Y-80650D01*
X-100746Y-80493D01*
X-100255Y-76139D01*
X-100268Y-75974D01*
X-100244Y-75810D01*
X-100448Y-71434D01*
X-100488Y-71273D01*
X-100489Y-71107D01*
X-101383Y-66818D01*
X-101448Y-66666D01*
X-101476Y-66503D01*
X-103037Y-62409D01*
X-103125Y-62269D01*
X-103178Y-62112D01*
X-105368Y-58317D01*
X-105477Y-58192D01*
X-105554Y-58046D01*
X-108316Y-54645D01*
X-108444Y-54539D01*
X-108544Y-54407D01*
X-111809Y-51486D01*
X-111952Y-51402D01*
X-112071Y-51287D01*
X-115647Y-48991D01*
X-115741Y-47492D01*
X-112251Y-44002D01*
X-78740D01*
X-77551Y-43765D01*
X-76543Y-43092D01*
X-73776Y-40325D01*
X-73339Y-40577D01*
X-71207Y-41148D01*
X-69001D01*
X-67659Y-40788D01*
X-66956Y-41688D01*
X-66807Y-42138D01*
X-67387Y-43007D01*
X-67624Y-44196D01*
Y-54507D01*
X-68594Y-54700D01*
X-69602Y-55373D01*
X-70886Y-56657D01*
X-78555D01*
Y-68721D01*
X-66491D01*
Y-61052D01*
X-66118Y-60679D01*
X-65953D01*
X-64764Y-60442D01*
X-63755Y-59768D01*
X-62319Y-58331D01*
X-61645Y-57323D01*
X-61408Y-56134D01*
Y-50413D01*
X-59884Y-50212D01*
X-59881Y-50225D01*
X-58777Y-52137D01*
X-57217Y-53697D01*
X-55305Y-54801D01*
X-55178Y-54835D01*
Y-57134D01*
X-58852D01*
Y-68110D01*
X-58852Y-69198D01*
X-58852Y-70722D01*
Y-81698D01*
X-58852D01*
Y-82206D01*
X-58852D01*
Y-94198D01*
X-59360D01*
Y-99468D01*
X-52070D01*
X-44780D01*
Y-94198D01*
X-45288D01*
Y-91246D01*
X-41492D01*
Y-94920D01*
X-30516D01*
X-29428Y-94920D01*
X-27904Y-94920D01*
X-16928D01*
Y-94920D01*
X-15444Y-95017D01*
Y-99060D01*
X-6904D01*
X1636D01*
Y-91790D01*
X1128D01*
Y-90030D01*
X1330Y-89828D01*
X2003Y-88819D01*
X2240Y-87630D01*
X2003Y-86441D01*
X1330Y-85433D01*
X1128Y-85298D01*
Y-82784D01*
X1636Y-81470D01*
X1636Y-80285D01*
Y-76200D01*
X-6904D01*
X-15444D01*
X-15444Y-81259D01*
X-16928Y-81356D01*
X-16968Y-81356D01*
X-27904D01*
X-28992Y-81356D01*
X-30516Y-81356D01*
X-41492D01*
Y-85030D01*
X-45288D01*
Y-82206D01*
X-45288D01*
Y-81698D01*
X-45288D01*
Y-70722D01*
X-45288Y-69634D01*
X-45288Y-68110D01*
Y-57134D01*
X-48962D01*
Y-54835D01*
X-48835Y-54801D01*
X-46923Y-53697D01*
X-45363Y-52137D01*
X-44259Y-50225D01*
X-43688Y-48094D01*
Y-45887D01*
X-43734Y-45715D01*
X-42425Y-44710D01*
X-41589Y-45193D01*
X-40460Y-45496D01*
Y-50602D01*
X-34720D01*
X-28980D01*
Y-44882D01*
X-31845D01*
X-32476Y-43358D01*
X-31647Y-42529D01*
X-30543Y-40617D01*
X-29972Y-38486D01*
Y-36279D01*
X-30543Y-34147D01*
X-31647Y-32236D01*
X-33207Y-30675D01*
X-35119Y-29571D01*
X-37250Y-29000D01*
X-39457D01*
X-41589Y-29571D01*
X-43501Y-30675D01*
X-45061Y-32236D01*
X-46165Y-34147D01*
X-46199Y-34274D01*
X-57702D01*
X-58892Y-34511D01*
X-59900Y-35185D01*
X-60715Y-36000D01*
X-62081Y-35211D01*
X-61722Y-33870D01*
Y-31662D01*
X-62293Y-29531D01*
X-63397Y-27619D01*
X-63524Y-27492D01*
X-62893Y-25968D01*
X24780D01*
X25970Y-25731D01*
X26978Y-25057D01*
X30313Y-21722D01*
X37632D01*
Y-18348D01*
X49183D01*
X50372Y-18111D01*
X51182Y-17570D01*
X51241Y-17629D01*
X53153Y-18733D01*
X55285Y-19304D01*
X57491D01*
X59623Y-18733D01*
X61535Y-17629D01*
X63095Y-16069D01*
X64199Y-14157D01*
X64770Y-12026D01*
Y-9819D01*
X64199Y-7687D01*
X63095Y-5775D01*
X61535Y-4215D01*
X59623Y-3111D01*
X57491Y-2540D01*
X55285D01*
X53153Y-3111D01*
X51241Y-4215D01*
X49681Y-5775D01*
X48577Y-7687D01*
X48006Y-9819D01*
Y-12022D01*
X47896Y-12132D01*
X37632D01*
Y-8758D01*
X27168D01*
Y-16077D01*
X25548Y-17697D01*
X24140Y-17114D01*
Y-16510D01*
X18400D01*
X12660D01*
Y-19752D01*
X-83294D01*
X-83795Y-17883D01*
X-85096Y-15630D01*
X-86936Y-13790D01*
X-89189Y-12489D01*
X-91702Y-11816D01*
X-94304D01*
X-96818Y-12489D01*
X-99071Y-13790D01*
X-100911Y-15630D01*
X-102212Y-17883D01*
X-102885Y-20397D01*
Y-22999D01*
X-102212Y-25512D01*
X-100911Y-27766D01*
X-99071Y-29605D01*
X-96818Y-30906D01*
X-94304Y-31580D01*
X-91702D01*
X-89189Y-30906D01*
X-86936Y-29605D01*
X-85096Y-27766D01*
X-84058Y-25968D01*
X-77315D01*
X-76684Y-27492D01*
X-76811Y-27619D01*
X-77915Y-29531D01*
X-78486Y-31662D01*
Y-33870D01*
X-77984Y-35743D01*
X-80027Y-37786D01*
X-113538D01*
X-114727Y-38023D01*
X-115736Y-38696D01*
X-121069Y-44030D01*
X-121743Y-45039D01*
X-123439Y-46111D01*
X-124615Y-45806D01*
X-124781Y-45797D01*
X-124939Y-45750D01*
X-129301Y-45338D01*
X-129466Y-45355D01*
X-129630Y-45333D01*
X-134002Y-45617D01*
X-134162Y-45659D01*
X-134327Y-45664D01*
X-138600Y-46636D01*
X-138751Y-46703D01*
X-138913Y-46734D01*
X-142978Y-48370D01*
X-143600Y-48455D01*
X-144775Y-48151D01*
X-161816Y-18635D01*
X-161627Y-17134D01*
X-159029Y-15051D01*
X-158909Y-14908D01*
X-158762Y-14794D01*
X-156576Y-12282D01*
X-156483Y-12121D01*
X-156358Y-11982D01*
X-154655Y-9121D01*
X-154592Y-8945D01*
X-154494Y-8787D01*
X-153327Y-5668D01*
X-153297Y-5484D01*
X-153229Y-5311D01*
X-152636Y-2034D01*
X-152639Y-1848D01*
X-152603Y-1665D01*
Y1665D01*
X-152639Y1848D01*
X-152636Y2034D01*
X-153229Y5311D01*
X-153297Y5484D01*
X-153327Y5668D01*
X-153820Y6984D01*
X-126066Y34738D01*
X-121920D01*
X-120731Y34975D01*
X-119722Y35649D01*
X-96355Y59016D01*
X-95681Y60025D01*
X-95444Y61214D01*
Y118601D01*
X-84558Y129487D01*
X-81573Y129986D01*
X-81399Y130052D01*
X-81215Y130079D01*
X-78081Y131204D01*
X-77921Y131300D01*
X-77745Y131360D01*
X-74861Y133025D01*
X-74721Y133148D01*
X-74558Y133238D01*
X-72016Y135390D01*
X-71900Y135536D01*
X-71756Y135654D01*
X-69639Y138224D01*
X-69551Y138388D01*
X-69430Y138530D01*
X-68611Y139993D01*
X-63850D01*
X-63442Y138469D01*
D02*
G37*
G36*
X48450Y147934D02*
X47903Y147387D01*
X46799Y145475D01*
X46228Y143343D01*
Y141137D01*
X46799Y139005D01*
X46865Y138890D01*
X18016Y110041D01*
X16701Y110811D01*
X17272Y112942D01*
Y115149D01*
X16701Y117281D01*
X15597Y119193D01*
X14037Y120753D01*
X12626Y121568D01*
X12526Y123054D01*
X12598Y123269D01*
X15484Y124758D01*
X15613Y124861D01*
X15763Y124931D01*
X19290Y127531D01*
X19402Y127654D01*
X19538Y127747D01*
X22609Y130872D01*
X22700Y131011D01*
X22820Y131124D01*
X25358Y134696D01*
X25426Y134847D01*
X25526Y134978D01*
X27467Y138906D01*
X27510Y139066D01*
X27589Y139212D01*
X28883Y143398D01*
X28900Y143562D01*
X28955Y143719D01*
X29571Y148056D01*
X29902Y148702D01*
X30645Y149458D01*
X47819D01*
X48450Y147934D01*
D02*
G37*
G36*
X-30033Y148790D02*
X-29633Y148075D01*
X-29020Y143737D01*
X-28965Y143581D01*
X-28948Y143416D01*
X-27656Y139229D01*
X-27577Y139083D01*
X-27534Y138924D01*
X-25596Y134994D01*
X-25496Y134863D01*
X-25428Y134712D01*
X-22893Y131138D01*
X-22773Y131025D01*
X-22682Y130886D01*
X-19613Y127759D01*
X-19476Y127666D01*
X-19365Y127543D01*
X-15840Y124941D01*
X-15690Y124871D01*
X-15561Y124768D01*
X-11668Y122756D01*
X-11509Y122710D01*
X-11365Y122629D01*
X-7204Y121258D01*
X-7039Y121238D01*
X-6884Y121181D01*
X-2558Y120486D01*
X-2393Y120492D01*
X-2230Y120460D01*
X1294Y120459D01*
X1729Y119839D01*
X2034Y118934D01*
X1079Y117281D01*
X508Y115149D01*
Y112942D01*
X1079Y110811D01*
X1963Y109280D01*
X1360Y107756D01*
X-12555D01*
X-50098Y145298D01*
X-51106Y145972D01*
X-52295Y146209D01*
X-64867D01*
X-65924Y147420D01*
X-65753Y148736D01*
X-64756Y149458D01*
X-30688D01*
X-30033Y148790D01*
D02*
G37*
G36*
X144082Y51421D02*
X142205Y50292D01*
X138140Y48656D01*
X133868Y47684D01*
X129496Y47400D01*
X125134Y47812D01*
X120892Y48909D01*
X116877Y50663D01*
X113190Y53031D01*
X109925Y55951D01*
X107162Y59352D01*
X104973Y63147D01*
X103411Y67241D01*
X102517Y71530D01*
X102313Y75907D01*
X102804Y80260D01*
X103978Y84482D01*
X105805Y88464D01*
X108239Y92107D01*
X111219Y95319D01*
X114669Y98019D01*
X116586Y99079D01*
X116586D01*
X144082Y51421D01*
D02*
G37*
G36*
X115758Y48920D02*
X115912Y48859D01*
X116048Y48765D01*
X120062Y47011D01*
X120224Y46975D01*
X120373Y46903D01*
X124615Y45806D01*
X124780Y45797D01*
X124939Y45750D01*
X129301Y45338D01*
X129466Y45355D01*
X129630Y45333D01*
X134002Y45617D01*
X134162Y45659D01*
X134327Y45664D01*
X138600Y46636D01*
X138751Y46703D01*
X138913Y46734D01*
X142978Y48370D01*
X143601Y48454D01*
X144775Y48151D01*
X161816Y18635D01*
X161627Y17134D01*
X159029Y15051D01*
X158909Y14908D01*
X158762Y14794D01*
X156575Y12282D01*
X156507Y12162D01*
X156055Y12252D01*
X123461D01*
X95310Y40403D01*
Y42065D01*
X96834Y42696D01*
X97723Y41807D01*
X99635Y40703D01*
X101767Y40132D01*
X103974D01*
X106105Y40703D01*
X108017Y41807D01*
X109577Y43367D01*
X110681Y45279D01*
X111252Y47410D01*
Y49618D01*
X111116Y50126D01*
X111217Y50280D01*
X111276Y50350D01*
X112447Y51046D01*
X115758Y48920D01*
D02*
G37*
G36*
X-101766Y119898D02*
X-101660Y119782D01*
Y62501D01*
X-123207Y40954D01*
X-127353D01*
X-128542Y40717D01*
X-129551Y40044D01*
X-156128Y13466D01*
X-157651Y13519D01*
X-158762Y14794D01*
X-158909Y14908D01*
X-159029Y15051D01*
X-161627Y17134D01*
X-161816Y18635D01*
X-103307Y119977D01*
X-101766Y119898D01*
D02*
G37*
G36*
X173778Y0D02*
X164387Y-16311D01*
X162923Y-15517D01*
X160324Y-13434D01*
X158138Y-10922D01*
X156435Y-8061D01*
X155268Y-4942D01*
X154675Y-1665D01*
Y1665D01*
X155268Y4942D01*
X156435Y8061D01*
X158138Y10922D01*
X160324Y13434D01*
X162923Y15517D01*
X164387Y16310D01*
X164387D01*
X173778Y0D01*
D02*
G37*
G36*
X-162923Y15517D02*
X-160324Y13434D01*
X-158139Y10922D01*
X-156435Y8061D01*
X-155268Y4942D01*
X-154675Y1665D01*
Y-1665D01*
X-155268Y-4942D01*
X-156435Y-8061D01*
X-158139Y-10922D01*
X-160324Y-13434D01*
X-162923Y-15517D01*
X-164387Y-16311D01*
Y-16310D01*
X-173778Y0D01*
X-164387Y16310D01*
X-162923Y15517D01*
D02*
G37*
G36*
X161627Y-17134D02*
X161816Y-18635D01*
X144744Y-48204D01*
X143872Y-48429D01*
X143025Y-48425D01*
X138961Y-46787D01*
X138799Y-46757D01*
X138648Y-46689D01*
X134376Y-45714D01*
X134211Y-45710D01*
X134051Y-45667D01*
X129679Y-45381D01*
X129514Y-45402D01*
X129350Y-45385D01*
X124987Y-45794D01*
X124829Y-45842D01*
X124664Y-45851D01*
X120421Y-46945D01*
X120272Y-47017D01*
X120110Y-47052D01*
X116094Y-48804D01*
X115958Y-48898D01*
X115804Y-48959D01*
X112116Y-51324D01*
X111997Y-51439D01*
X111854Y-51523D01*
X108587Y-54441D01*
X108487Y-54574D01*
X108359Y-54679D01*
X105595Y-58078D01*
X105518Y-58225D01*
X105408Y-58349D01*
X103689Y-61325D01*
X101912Y-61643D01*
X101848Y-61618D01*
X101805Y-61596D01*
X74587Y-34378D01*
X73579Y-33705D01*
X72390Y-33468D01*
X62455D01*
X62421Y-33341D01*
X61317Y-31429D01*
X59920Y-30032D01*
X60024Y-29342D01*
X60447Y-28508D01*
X95504D01*
X96693Y-28271D01*
X97702Y-27597D01*
X103903Y-21396D01*
X152714D01*
X153590Y-21570D01*
X154780Y-21333D01*
X155788Y-20660D01*
X160343Y-16105D01*
X161627Y-17134D01*
D02*
G37*
G36*
X-125134Y-47812D02*
X-120892Y-48909D01*
X-116877Y-50663D01*
X-113190Y-53031D01*
X-109925Y-55951D01*
X-107162Y-59352D01*
X-104973Y-63147D01*
X-103411Y-67241D01*
X-102517Y-71530D01*
X-102313Y-75907D01*
X-102804Y-80260D01*
X-103978Y-84482D01*
X-105805Y-88464D01*
X-108239Y-92107D01*
X-111219Y-95319D01*
X-114669Y-98019D01*
X-116586Y-99079D01*
Y-99079D01*
X-144082Y-51421D01*
X-142205Y-50292D01*
X-138140Y-48656D01*
X-133868Y-47684D01*
X-129496Y-47401D01*
X-125134Y-47812D01*
D02*
G37*
G36*
X133915Y-47734D02*
X138187Y-48709D01*
X142250Y-50347D01*
X144127Y-51477D01*
X116601Y-99118D01*
X114685Y-98057D01*
X111236Y-95355D01*
X108258Y-92141D01*
X105827Y-88497D01*
X104002Y-84513D01*
X102831Y-80291D01*
X102343Y-75937D01*
X102550Y-71561D01*
X103446Y-67272D01*
X105010Y-63179D01*
X107202Y-59386D01*
X109967Y-55987D01*
X113234Y-53068D01*
X116922Y-50703D01*
X120938Y-48951D01*
X125181Y-47857D01*
X129543Y-47448D01*
X133915Y-47734D01*
D02*
G37*
G36*
X100873Y-69454D02*
X100522Y-71137D01*
X100520Y-71302D01*
X100480Y-71463D01*
X100273Y-75839D01*
X100298Y-76003D01*
X100284Y-76168D01*
X100772Y-80522D01*
X100822Y-80680D01*
X100835Y-80845D01*
X102006Y-85067D01*
X102080Y-85215D01*
X102119Y-85376D01*
X103943Y-89359D01*
X104040Y-89493D01*
X104103Y-89646D01*
X106535Y-93291D01*
X106652Y-93408D01*
X106739Y-93549D01*
X109716Y-96763D01*
X109850Y-96860D01*
X109958Y-96986D01*
X113407Y-99688D01*
X113806Y-100318D01*
X114082Y-101313D01*
X97036Y-130838D01*
X95653Y-131441D01*
X92550Y-130232D01*
X92367Y-130199D01*
X92194Y-130129D01*
X88926Y-129492D01*
X88740Y-129493D01*
X88557Y-129454D01*
X85227Y-129409D01*
X85044Y-129443D01*
X84858Y-129437D01*
X83511Y-129662D01*
X64068Y-110219D01*
Y-50800D01*
X63831Y-49611D01*
X63158Y-48602D01*
X59656Y-45101D01*
X59602Y-45035D01*
X59729Y-43299D01*
X59757Y-43283D01*
X61317Y-41723D01*
X62421Y-39811D01*
X62455Y-39684D01*
X71103D01*
X100873Y-69454D01*
D02*
G37*
G36*
X45152Y-130573D02*
Y-140208D01*
X45389Y-141397D01*
X46062Y-142406D01*
X48956Y-145299D01*
X49964Y-145972D01*
X51153Y-146209D01*
X64866D01*
X65923Y-147421D01*
X65753Y-148736D01*
X64757Y-149458D01*
X30712D01*
X29644Y-148371D01*
X29653Y-147923D01*
X29623Y-147760D01*
X29633Y-147595D01*
X29020Y-143257D01*
X28965Y-143100D01*
X28948Y-142936D01*
X27656Y-138749D01*
X27577Y-138603D01*
X27534Y-138444D01*
X25928Y-135185D01*
X26994Y-134119D01*
X27753Y-134557D01*
X29885Y-135128D01*
X32092D01*
X34223Y-134557D01*
X36135Y-133453D01*
X37695Y-131893D01*
X38799Y-129981D01*
X39370Y-127850D01*
Y-126946D01*
X40894Y-126315D01*
X45152Y-130573D01*
D02*
G37*
G36*
X-26212Y-135886D02*
X-27467Y-138426D01*
X-27510Y-138586D01*
X-27589Y-138732D01*
X-28883Y-142918D01*
X-28900Y-143082D01*
X-28955Y-143239D01*
X-29571Y-147576D01*
X-29562Y-147742D01*
X-29591Y-147905D01*
X-29583Y-148371D01*
X-30651Y-149458D01*
X-64757D01*
X-65753Y-148736D01*
X-65923Y-147421D01*
X-64866Y-146209D01*
X-39977D01*
X-38788Y-145972D01*
X-37780Y-145299D01*
X-27467Y-134986D01*
X-26212Y-135886D01*
D02*
G37*
G36*
X2230Y-122052D02*
X6556Y-122746D01*
X10717Y-124117D01*
X14609Y-126128D01*
X18134Y-128730D01*
X21203Y-131857D01*
X23738Y-135431D01*
X25676Y-139360D01*
X26968Y-143547D01*
X27581Y-147885D01*
X27541Y-150075D01*
X-27480Y-150058D01*
X-27520Y-147868D01*
X-26904Y-143530D01*
X-25609Y-139344D01*
X-23669Y-135416D01*
X-21131Y-131844D01*
X-18061Y-128719D01*
X-14534Y-126119D01*
X-10640Y-124110D01*
X-6478Y-122742D01*
X-2152Y-122050D01*
X2230Y-122052D01*
D02*
G37*
G36*
X88529Y-131525D02*
X91798Y-132162D01*
X94901Y-133371D01*
X96320Y-134242D01*
X86890Y-150530D01*
X68069Y-150553D01*
X68025Y-148889D01*
X68529Y-145597D01*
X69612Y-142448D01*
X71238Y-139541D01*
X73355Y-136971D01*
X75897Y-134819D01*
X78781Y-133154D01*
X81915Y-132029D01*
X85200Y-131481D01*
X88529Y-131525D01*
D02*
G37*
G36*
X-81915Y-132029D02*
X-78781Y-133154D01*
X-75897Y-134819D01*
X-73355Y-136971D01*
X-71238Y-139541D01*
X-69612Y-142448D01*
X-68529Y-145597D01*
X-68025Y-148889D01*
X-68069Y-150553D01*
X-86890Y-150530D01*
X-96320Y-134242D01*
X-94901Y-133371D01*
X-91798Y-132162D01*
X-88529Y-131525D01*
X-85200Y-131481D01*
X-81915Y-132029D01*
D02*
G37*
%LPC*%
G36*
X-50065Y129540D02*
X-57658D01*
Y121947D01*
X-55497Y122526D01*
X-53469Y123696D01*
X-51814Y125351D01*
X-50644Y127379D01*
X-50065Y129540D01*
D02*
G37*
G36*
X-60198D02*
X-67791D01*
X-67212Y127379D01*
X-66042Y125351D01*
X-64387Y123696D01*
X-62359Y122526D01*
X-60198Y121947D01*
Y129540D01*
D02*
G37*
G36*
X86868Y116051D02*
X84707Y115472D01*
X82679Y114302D01*
X81024Y112647D01*
X79854Y110619D01*
X79275Y108458D01*
X86868D01*
Y116051D01*
D02*
G37*
G36*
Y105918D02*
X79275D01*
X79854Y103757D01*
X81024Y101729D01*
X82679Y100074D01*
X84707Y98904D01*
X86868Y98325D01*
Y105918D01*
D02*
G37*
G36*
X36390Y81297D02*
Y73704D01*
X43983D01*
X43404Y75866D01*
X42234Y77893D01*
X40578Y79548D01*
X38551Y80718D01*
X36390Y81297D01*
D02*
G37*
G36*
X33850D02*
X31688Y80718D01*
X29661Y79548D01*
X28006Y77893D01*
X26836Y75866D01*
X26257Y73704D01*
X33850D01*
Y81297D01*
D02*
G37*
G36*
X43983Y71164D02*
X36390D01*
Y63571D01*
X38551Y64150D01*
X40578Y65320D01*
X42234Y66975D01*
X43404Y69003D01*
X43983Y71164D01*
D02*
G37*
G36*
X33850D02*
X26257D01*
X26836Y69003D01*
X28006Y66975D01*
X29661Y65320D01*
X31688Y64150D01*
X33850Y63571D01*
Y71164D01*
D02*
G37*
G36*
X-37338Y48487D02*
Y40894D01*
X-29745D01*
X-30324Y43055D01*
X-31494Y45083D01*
X-33149Y46738D01*
X-35177Y47908D01*
X-37338Y48487D01*
D02*
G37*
G36*
X-39878D02*
X-42039Y47908D01*
X-44067Y46738D01*
X-45722Y45083D01*
X-46892Y43055D01*
X-47471Y40894D01*
X-39878D01*
Y48487D01*
D02*
G37*
G36*
X-29745Y38354D02*
X-37338D01*
Y30761D01*
X-35177Y31340D01*
X-33149Y32510D01*
X-31494Y34165D01*
X-30324Y36193D01*
X-29745Y38354D01*
D02*
G37*
G36*
X-39878D02*
X-47471D01*
X-46892Y36193D01*
X-45722Y34165D01*
X-44067Y32510D01*
X-42039Y31340D01*
X-39878Y30761D01*
Y38354D01*
D02*
G37*
G36*
X90932Y29864D02*
X88771Y29284D01*
X86743Y28114D01*
X85088Y26459D01*
X83918Y24432D01*
X83339Y22270D01*
X90932D01*
Y29864D01*
D02*
G37*
G36*
X-83121Y38984D02*
X-102885D01*
Y19220D01*
X-83121D01*
Y38984D01*
D02*
G37*
G36*
X101065Y19730D02*
X93472D01*
Y12137D01*
X95633Y12716D01*
X97661Y13886D01*
X99316Y15542D01*
X100486Y17569D01*
X101065Y19730D01*
D02*
G37*
G36*
X90932D02*
X83339D01*
X83918Y17569D01*
X85088Y15542D01*
X86743Y13886D01*
X88771Y12716D01*
X90932Y12137D01*
Y19730D01*
D02*
G37*
G36*
X1270Y8863D02*
Y1270D01*
X8863D01*
X8284Y3431D01*
X7114Y5458D01*
X5458Y7114D01*
X3431Y8284D01*
X1270Y8863D01*
D02*
G37*
G36*
X-1270D02*
X-3432Y8284D01*
X-5459Y7114D01*
X-7114Y5458D01*
X-8284Y3431D01*
X-8863Y1270D01*
X-1270D01*
Y8863D01*
D02*
G37*
G36*
X-91702Y13584D02*
X-94304D01*
X-96818Y12911D01*
X-99071Y11610D01*
X-100911Y9770D01*
X-102212Y7516D01*
X-102885Y5003D01*
Y2401D01*
X-102212Y-112D01*
X-100911Y-2366D01*
X-99071Y-4205D01*
X-96818Y-5506D01*
X-94304Y-6180D01*
X-91702D01*
X-89189Y-5506D01*
X-86936Y-4205D01*
X-85096Y-2366D01*
X-83795Y-112D01*
X-83121Y2401D01*
Y5003D01*
X-83795Y7516D01*
X-85096Y9770D01*
X-86936Y11610D01*
X-89189Y12911D01*
X-91702Y13584D01*
D02*
G37*
G36*
X8863Y-1270D02*
X1270D01*
Y-8863D01*
X3431Y-8284D01*
X5458Y-7114D01*
X7114Y-5459D01*
X8284Y-3432D01*
X8863Y-1270D01*
D02*
G37*
G36*
X-1270D02*
X-8863D01*
X-8284Y-3432D01*
X-7114Y-5459D01*
X-5459Y-7114D01*
X-3432Y-8284D01*
X-1270Y-8863D01*
Y-1270D01*
D02*
G37*
G36*
X142494Y-4318D02*
X134901D01*
X135480Y-6479D01*
X136650Y-8507D01*
X138305Y-10162D01*
X140333Y-11332D01*
X142494Y-11911D01*
Y-4318D01*
D02*
G37*
G36*
X24140Y-8250D02*
X19670D01*
Y-13970D01*
X24140D01*
Y-8250D01*
D02*
G37*
G36*
X17130D02*
X12660D01*
Y-13970D01*
X17130D01*
Y-8250D01*
D02*
G37*
G36*
X-35990Y-53142D02*
X-40460D01*
Y-58862D01*
X-35990D01*
Y-53142D01*
D02*
G37*
G36*
X-28980D02*
X-33450D01*
Y-58862D01*
X-32308D01*
X-31900Y-60386D01*
X-32891Y-60958D01*
X-34546Y-62613D01*
X-35716Y-64641D01*
X-36295Y-66802D01*
X-28702D01*
Y-58794D01*
X-28980Y-57712D01*
Y-53142D01*
D02*
G37*
G36*
X-18569Y-69342D02*
X-26162D01*
Y-76935D01*
X-24001Y-76356D01*
X-21973Y-75186D01*
X-20318Y-73531D01*
X-19148Y-71503D01*
X-18569Y-69342D01*
D02*
G37*
G36*
X-28702D02*
X-36295D01*
X-35716Y-71503D01*
X-34546Y-73531D01*
X-32891Y-75186D01*
X-30863Y-76356D01*
X-28702Y-76935D01*
Y-69342D01*
D02*
G37*
G36*
X-69252Y-72720D02*
X-74522D01*
Y-78740D01*
X-69252D01*
Y-72720D01*
D02*
G37*
G36*
Y-81280D02*
X-74522D01*
Y-87300D01*
X-69252D01*
Y-81280D01*
D02*
G37*
G36*
X-81491Y-56657D02*
X-93555D01*
Y-64326D01*
X-97448Y-68218D01*
X-98121Y-69226D01*
X-98358Y-70416D01*
Y-72302D01*
X-98121Y-73491D01*
X-97448Y-74500D01*
X-94324Y-77623D01*
Y-86792D01*
X-82332D01*
Y-87300D01*
X-77062D01*
Y-80010D01*
Y-72720D01*
X-82332D01*
Y-73228D01*
X-89929D01*
X-91798Y-71359D01*
X-89160Y-68721D01*
X-81491D01*
Y-56657D01*
D02*
G37*
G36*
X-44780Y-102008D02*
X-50800D01*
Y-107278D01*
X-44780D01*
Y-102008D01*
D02*
G37*
G36*
X-53340D02*
X-59360D01*
Y-107278D01*
X-53340D01*
Y-102008D01*
D02*
G37*
G36*
X1636Y-101600D02*
X-5634D01*
Y-108870D01*
X1636D01*
Y-101600D01*
D02*
G37*
G36*
X-8174D02*
X-15444D01*
Y-108870D01*
X-8174D01*
Y-101600D01*
D02*
G37*
G36*
X-92710Y-112041D02*
Y-119634D01*
X-85117D01*
X-85696Y-117473D01*
X-86866Y-115445D01*
X-88521Y-113790D01*
X-90549Y-112620D01*
X-92710Y-112041D01*
D02*
G37*
G36*
X83127Y-56198D02*
X67063D01*
Y-67374D01*
X67063Y-68262D01*
X67063Y-69786D01*
Y-80074D01*
X67063Y-80962D01*
X67063Y-82486D01*
Y-92774D01*
X67063Y-93662D01*
X67063Y-95186D01*
Y-106362D01*
X83127D01*
Y-95186D01*
X83127Y-94298D01*
X83127Y-92774D01*
Y-82486D01*
X83127Y-81598D01*
X83127Y-80074D01*
Y-69786D01*
X83127Y-68898D01*
X83127Y-67374D01*
Y-56198D01*
D02*
G37*
%LPD*%
D13*
X54610Y142240D02*
X71120D01*
X-14364Y-55306D02*
X-7440Y-62230D01*
X-18536Y-55306D02*
X-14364D01*
D14*
X-88292Y-80010D02*
D03*
X-75792D02*
D03*
X-35460Y-88138D02*
D03*
X-22960D02*
D03*
D15*
X-6904Y-100330D02*
D03*
D16*
X-52070Y-100738D02*
D03*
Y-63166D02*
D03*
Y-75666D02*
D03*
Y-88238D02*
D03*
D17*
X-34720Y-51872D02*
D03*
X18400Y-15240D02*
D03*
X32400D02*
D03*
X-20720Y-51872D02*
D03*
D18*
X-6904Y-74930D02*
D03*
Y-62230D02*
D03*
Y-87630D02*
D03*
X75096Y-62230D02*
D03*
Y-74930D02*
D03*
Y-87630D02*
D03*
Y-100330D02*
D03*
D19*
X-87523Y-62689D02*
D03*
X-72523D02*
D03*
D20*
X123901Y-71601D02*
D03*
X82601Y-143101D02*
D03*
X-82601Y143101D02*
D03*
D21*
X123901Y71501D02*
D03*
X-123901Y-71501D02*
D03*
X165199Y-0D02*
D03*
X-165199D02*
D03*
D22*
X-0Y-142621D02*
D03*
Y143101D02*
D03*
X82601D02*
D03*
X-82601Y-143101D02*
D03*
D29*
X-93003Y3702D02*
D03*
Y-21698D02*
D03*
D30*
Y29102D02*
D03*
D31*
X-57702Y-37382D02*
X-38354D01*
X-52070Y-63166D02*
Y-46990D01*
X-64516Y-44196D02*
X-57702Y-37382D01*
X-27432Y-68072D02*
X-27178Y-67818D01*
X-16016D01*
X-8904Y-74930D01*
X-6904D01*
X-34720Y-60784D02*
X-27432Y-68072D01*
X-34720Y-60784D02*
Y-51872D01*
X-67405Y-57571D02*
X-65953D01*
X-72523Y-62689D02*
X-67405Y-57571D01*
X-65953D02*
X-64516Y-56134D01*
X-52070Y-63166D02*
X-52070Y-63166D01*
X-64516Y-56134D02*
Y-44196D01*
X-7312Y-100738D02*
X-6904Y-100330D01*
X-52070Y-100738D02*
X-7312D01*
X-55054Y-97754D02*
X-52070Y-100738D01*
X-58798Y-97754D02*
X-55054D01*
X-75792Y-80760D02*
X-58798Y-97754D01*
X-75792Y-80760D02*
Y-80010D01*
X-6904Y-100330D02*
X-1920Y-95346D01*
X-310D01*
X8128Y-86908D01*
Y-82042D01*
X1016Y-74930D02*
X8128Y-82042D01*
X-6904Y-74930D02*
X1016D01*
X88138Y37433D02*
Y107188D01*
Y37433D02*
X92202Y33369D01*
Y21000D02*
Y33369D01*
X143764Y-3048D02*
Y-161D01*
X139954Y3649D02*
X143764Y-161D01*
X139954Y3649D02*
Y5080D01*
X108122D02*
X139954D01*
X92202Y21000D02*
X108122Y5080D01*
X122174Y9144D02*
X156055D01*
X92202Y39116D02*
X122174Y9144D01*
X18400Y-15240D02*
Y-13990D01*
X-36567Y37583D02*
X-33173D01*
X-38608Y39624D02*
X-36567Y37583D01*
X24780Y-22860D02*
X32400Y-15240D01*
X-91841Y-22860D02*
X24780D01*
X-93003Y-21698D02*
X-91841Y-22860D01*
X32400Y-15240D02*
X49183D01*
X-38608Y39624D02*
X2310D01*
X35120Y72434D01*
X-88292Y-80010D02*
Y-79260D01*
X-95250Y-72302D02*
X-88292Y-79260D01*
X-95250Y-72302D02*
Y-70416D01*
X-87523Y-62689D01*
X-6904Y-100330D02*
X30480D01*
X37338Y-107188D01*
Y-112014D02*
Y-107188D01*
Y-112014D02*
X58166Y-132842D01*
X-113538Y-40894D02*
X-78740D01*
X-70612Y-32766D01*
X-118872Y-46228D02*
X-113538Y-40894D01*
X54610Y-36576D02*
X72390D01*
X105156Y-69342D01*
X102870Y48514D02*
X111506Y57150D01*
X112522D01*
X29972Y-126746D02*
X30988D01*
X21336Y-135382D02*
X29972Y-126746D01*
X-118872Y-53848D02*
Y-46228D01*
X-70612Y-32766D02*
X-70104D01*
X8636Y114300D02*
X8890Y114046D01*
X8636Y114300D02*
Y123444D01*
X5588Y126492D02*
X8636Y123444D01*
X49183Y-15240D02*
X53501Y-10922D01*
X56388D01*
X156055Y9144D02*
X165199Y-0D01*
X164004Y-1195D02*
X165199Y-0D01*
X164004Y-8048D02*
Y-1195D01*
X153590Y-18462D02*
X164004Y-8048D01*
X153416Y-18288D02*
X153590Y-18462D01*
X102616Y-18288D02*
X153416D01*
X95504Y-25400D02*
X102616Y-18288D01*
X46990Y-25400D02*
X95504D01*
X63293Y-119602D02*
X63506Y-119799D01*
X63293Y-119602D02*
X79072Y-135382D01*
X1132Y-62230D02*
X63293Y-119602D01*
X51153Y-143101D02*
X82601D01*
X48260Y-140208D02*
X51153Y-143101D01*
X48260Y-140208D02*
Y-129286D01*
X35306Y-116332D02*
X48260Y-129286D01*
X-13208Y-116332D02*
X35306D01*
X79072Y-135382D02*
X80010D01*
X75850Y-136400D02*
X76627Y-137176D01*
X75698Y-136135D02*
X75850Y-136400D01*
X60960Y-111506D02*
X82005Y-132551D01*
X82601Y-137668D02*
Y-133147D01*
X82005Y-132551D02*
X82601Y-133147D01*
X60960Y-111506D02*
Y-50800D01*
X-868Y-62230D02*
X1132D01*
X76627Y-137176D02*
X79727Y-137668D01*
X82601Y-137668D01*
X57404Y-47244D02*
X60960Y-50800D01*
X-39977Y-143101D02*
X-13208Y-116332D01*
X-82601Y-143101D02*
X-39977D01*
X92202Y39116D02*
Y77016D01*
X82601Y-143101D02*
Y-137668D01*
Y140945D02*
X85082Y138463D01*
X82601Y140945D02*
Y143101D01*
X85082Y135390D02*
Y138463D01*
X100584Y85398D02*
Y119888D01*
X85082Y135390D02*
X100584Y119888D01*
X92202Y77016D02*
X100584Y85398D01*
X46736Y-47244D02*
X57404D01*
X-82601Y143101D02*
X-52295D01*
X-82601Y140945D02*
Y143101D01*
X-52295D02*
X-13842Y104648D01*
X17018D02*
X54610Y142240D01*
X-85083Y138463D02*
X-82601Y140945D01*
X-13842Y104648D02*
X17018D01*
X-85083Y133357D02*
Y138463D01*
X-98552Y61214D02*
Y119888D01*
X-85083Y133357D01*
X-121920Y37846D02*
X-98552Y61214D01*
X-127353Y37846D02*
X-121920D01*
X-165199Y-0D02*
X-127353Y37846D01*
X41402Y-30988D02*
X46990Y-25400D01*
X41402Y-41910D02*
Y-30988D01*
Y-41910D02*
X46736Y-47244D01*
X-20720Y-53122D02*
X-18536Y-55306D01*
X-20720Y-53122D02*
Y-51872D01*
X-1376Y-88138D02*
X-868Y-87630D01*
X-22960Y-88138D02*
X-1376D01*
X-52070Y-88238D02*
X-51970Y-88138D01*
X-35460D01*
X-52070Y-88238D02*
Y-75666D01*
D32*
X-0Y-0D02*
D03*
X-52070Y-46990D02*
D03*
X-27432Y-68072D02*
D03*
X-38354Y-37382D02*
D03*
X-38608Y39624D02*
D03*
X-93980Y-120904D02*
D03*
X35120Y72434D02*
D03*
X88138Y107188D02*
D03*
X92202Y21000D02*
D03*
X58166Y-132842D02*
D03*
X-58928Y130810D02*
D03*
X143764Y-3048D02*
D03*
X54610Y-36576D02*
D03*
X102870Y48514D02*
D03*
X30988Y-126746D02*
D03*
X-70104Y-32766D02*
D03*
X8890Y114046D02*
D03*
X56388Y-10922D02*
D03*
X54610Y142240D02*
D03*
M02*
