G04*
G04 #@! TF.GenerationSoftware,Altium Limited,Altium Designer,25.8.1 (18)*
G04*
G04 Layer_Color=8421504*
%FSLAX44Y44*%
%MOMM*%
G71*
G04*
G04 #@! TF.SameCoordinates,1A4DDBEB-C1CA-4CE2-9A89-746601BF3F7A*
G04*
G04*
G04 #@! TF.FilePolarity,Positive*
G04*
G01*
G75*
%ADD14R,0.8000X0.9500*%
%ADD15R,1.2000X1.2000*%
%ADD16R,0.9500X0.8000*%
%ADD17R,0.6400X0.8900*%
%ADD18R,1.2000X0.8000*%
%ADD19R,0.8000X0.8000*%
G04:AMPARAMS|DCode=20|XSize=1mm|YSize=1mm|CornerRadius=0.5mm|HoleSize=0mm|Usage=FLASHONLY|Rotation=300.000|XOffset=0mm|YOffset=0mm|HoleType=Round|Shape=RoundedRectangle|*
%AMROUNDEDRECTD20*
21,1,1.0000,0.0000,0,0,300.0*
21,1,0.0000,1.0000,0,0,300.0*
1,1,1.0000,0.0000,0.0000*
1,1,1.0000,0.0000,0.0000*
1,1,1.0000,0.0000,0.0000*
1,1,1.0000,0.0000,0.0000*
%
%ADD20ROUNDEDRECTD20*%
G04:AMPARAMS|DCode=21|XSize=1mm|YSize=1mm|CornerRadius=0.5mm|HoleSize=0mm|Usage=FLASHONLY|Rotation=0.000|XOffset=0mm|YOffset=0mm|HoleType=Round|Shape=RoundedRectangle|*
%AMROUNDEDRECTD21*
21,1,1.0000,0.0000,0,0,0.0*
21,1,0.0000,1.0000,0,0,0.0*
1,1,1.0000,0.0000,0.0000*
1,1,1.0000,0.0000,0.0000*
1,1,1.0000,0.0000,0.0000*
1,1,1.0000,0.0000,0.0000*
%
%ADD21ROUNDEDRECTD21*%
G04:AMPARAMS|DCode=22|XSize=1mm|YSize=1mm|CornerRadius=0.5mm|HoleSize=0mm|Usage=FLASHONLY|Rotation=240.000|XOffset=0mm|YOffset=0mm|HoleType=Round|Shape=RoundedRectangle|*
%AMROUNDEDRECTD22*
21,1,1.0000,0.0000,0,0,240.0*
21,1,0.0000,1.0000,0,0,240.0*
1,1,1.0000,0.0000,0.0000*
1,1,1.0000,0.0000,0.0000*
1,1,1.0000,0.0000,0.0000*
1,1,1.0000,0.0000,0.0000*
%
%ADD22ROUNDEDRECTD22*%
D14*
X-88292Y-80010D02*
D03*
X-75792D02*
D03*
X-35460Y-88138D02*
D03*
X-22960D02*
D03*
D15*
X-6904Y-100330D02*
D03*
D16*
X-52070Y-100738D02*
D03*
Y-63166D02*
D03*
Y-75666D02*
D03*
Y-88238D02*
D03*
D17*
X-34720Y-51872D02*
D03*
X18400Y-15240D02*
D03*
X32400D02*
D03*
X-20720Y-51872D02*
D03*
D18*
X-6904Y-74930D02*
D03*
Y-62230D02*
D03*
Y-87630D02*
D03*
X75096Y-62230D02*
D03*
Y-74930D02*
D03*
Y-87630D02*
D03*
Y-100330D02*
D03*
D19*
X-87523Y-62689D02*
D03*
X-72523D02*
D03*
D20*
X123901Y-71601D02*
D03*
X82601Y-143101D02*
D03*
X-82601Y143101D02*
D03*
D21*
X123901Y71501D02*
D03*
X-123901Y-71501D02*
D03*
X165199Y-0D02*
D03*
X-165199D02*
D03*
D22*
X-0Y-142621D02*
D03*
Y143101D02*
D03*
X82601D02*
D03*
X-82601Y-143101D02*
D03*
M02*
